<svg width="81" height="58" viewBox="0 0 81 58" fill="none" xmlns="http://www.w3.org/2000/svg">
<path d="M37.32 9.06004C37.44 9.06004 37.5 9.14004 37.5 9.30004C37.5 12.58 37.48 15.52 37.44 18.12C37.44 20.68 37.42 23.04 37.38 25.2C37.34 27.36 37.28 29.46 37.2 31.5C37.12 33.54 37.02 35.68 36.9 37.92C36.9 38.08 36.88 38.24 36.84 38.4C36.84 38.56 36.84 38.72 36.84 38.88C36.84 39.04 36.84 39.2 36.84 39.36C36.84 39.48 36.82 39.58 36.78 39.66V40.5C36.78 41.18 36.74 41.98 36.66 42.9C36.62 43.86 36.54 44.74 36.42 45.54C35.9 47.98 35.06 49.96 33.9 51.48C32.78 53 31.12 54.28 28.92 55.32C28.28 55.56 27.72 55.72 27.24 55.8C26.8 55.92 26.42 56.02 26.1 56.1C25.38 56.22 24.6 56.28 23.76 56.28C23.24 56.28 22.38 56.32 21.18 56.4C19.98 56.52 18.5 56.56 16.74 56.52C15.02 56.52 13.12 56.36 11.04 56.04C8.96001 55.72 6.80001 55.14 4.56001 54.3L2.88001 53.34V52.98C2.88001 52.74 2.88001 52.5 2.88001 52.26C2.88001 52.06 2.90001 51.88 2.94001 51.72C2.94001 51.64 2.92001 51.56 2.88001 51.48C2.88001 51.4 2.90001 51.34 2.94001 51.3C2.98001 51.22 3.00001 51.06 3.00001 50.82C3.00001 50.5 3.00001 50.24 3.00001 50.04C3.04001 49.84 3.06001 49.72 3.06001 49.68C3.06001 48.12 3.06001 47.14 3.06001 46.74C3.10001 46.38 3.14001 46.12 3.18001 45.96C3.22001 45.84 3.24001 45.68 3.24001 45.48C3.24001 45.32 3.24001 45.14 3.24001 44.94V44.22C3.28001 44.22 3.30001 44.2 3.30001 44.16C3.30001 44.12 3.32001 44.08 3.36001 44.04C4.64001 44.48 6.08001 44.84 7.68001 45.12C9.32001 45.44 10.94 45.64 12.54 45.72C14.18 45.84 15.62 45.8 16.86 45.6C18.1 45.44 18.96 45.08 19.44 44.52C19.76 44.52 20.04 44.32 20.28 43.92C20.52 43.56 20.72 43.14 20.88 42.66C21.08 42.22 21.18 41.88 21.18 41.64C21.18 41.16 21.18 40.64 21.18 40.08C21.18 39.52 21.2 39.1 21.24 38.82L21.36 38.22C21.28 37.9 21.2 37.68 21.12 37.56L21.06 36.84C20.1 37.8 18.98 38.56 17.7 39.12C16.42 39.64 15.12 40 13.8 40.2C12.48 40.4 11.26 40.5 10.14 40.5C8.06001 40.5 6.32001 40.1 4.92001 39.3C3.56001 38.46 2.52001 37.36 1.80001 36C1.08001 34.6 0.62001 33.06 0.42001 31.38C0.30001 30.34 0.20001 29.02 0.12001 27.42C0.0400098 25.82 0.0600098 23.5 0.18001 20.46C0.18001 20.26 0.22001 19.96 0.30001 19.56C0.38001 19.16 0.42001 18.72 0.42001 18.24C0.42001 17.48 0.42001 16.46 0.42001 15.18C0.46001 13.9 0.48001 12.76 0.48001 11.76C0.48001 11.44 0.48001 11.18 0.48001 10.98C0.48001 10.74 0.46001 10.6 0.42001 10.56C0.42001 10.32 0.40001 10.1 0.36001 9.90004C0.36001 9.66004 0.36001 9.46004 0.36001 9.30004C0.36001 8.98004 0.48001 8.78004 0.72001 8.70004C1.00001 8.58004 1.42001 8.52004 1.98001 8.52004H4.92001C5.92001 8.52004 6.90001 8.54004 7.86001 8.58004C8.86001 8.58004 9.86001 8.60004 10.86 8.64004C13.42 8.68004 15.04 9.24004 15.72 10.32C15.8 10.48 15.84 10.82 15.84 11.34C15.88 11.86 15.9 12.46 15.9 13.14C15.9 14.82 15.9 16.28 15.9 17.52C15.9 18.72 15.88 19.84 15.84 20.88L15.72 26.76C15.56 28.52 15.82 29.78 16.5 30.54C17.22 31.26 18.16 31.26 19.32 30.54C19.88 30.3 20.24 29.94 20.4 29.46V13.68C20.36 13.32 20.32 13 20.28 12.72C20.28 12.4 20.28 12.12 20.28 11.88C20.24 11.8 20.22 11.5 20.22 10.98V9.60004C20.22 9.16004 20.28 8.86004 20.4 8.70004C20.52 8.54004 20.72 8.46004 21 8.46004C21.24 8.46004 21.36 8.56004 21.36 8.76004V8.82004C21.68 8.70004 22.4 8.60004 23.52 8.52004C24.64 8.40004 25.78 8.34004 26.94 8.34004H28.26L36.54 8.46004C36.74 8.46004 36.84 8.52004 36.84 8.64004C36.88 8.64004 36.9 8.66004 36.9 8.70004V9.06004C36.86 9.06004 36.84 9.12004 36.84 9.24004L37.14 9.18004C37.22 9.10004 37.28 9.06004 37.32 9.06004ZM58.5356 57.66C57.2556 57.66 56.2756 57.62 55.5956 57.54C54.9556 57.5 54.4156 57.42 53.9756 57.3C53.5356 57.22 52.9556 57.16 52.2356 57.12C50.5956 56.76 49.3756 56.4 48.5756 56.04C47.8156 55.68 47.0956 55.18 46.4156 54.54H45.7556L45.6956 54.12H45.2156L44.7956 53.58C44.1956 52.94 43.6756 52.4 43.2356 51.96C42.8356 51.52 42.5156 50.94 42.2756 50.22C42.0756 49.5 41.9756 48.44 41.9756 47.04C41.9756 46.24 42.3156 45.3 42.9956 44.22C43.7156 43.14 44.5756 42.26 45.5756 41.58C42.7356 40.58 41.3756 38.74 41.4956 36.06C41.5756 34.9 42.1156 33.84 43.1156 32.88C44.1156 31.88 45.4756 30.92 47.1956 30L48.7556 29.16H48.9956C48.0756 28.96 47.0956 28.6 46.0556 28.08C45.0156 27.56 44.3356 27.1 44.0156 26.7H43.4756V26.22C43.4356 26.22 43.3956 26.22 43.3556 26.22C43.3156 26.18 43.2556 26.16 43.1756 26.16L42.6356 25.44C41.9156 24.52 41.3556 23.34 40.9556 21.9C40.5956 20.46 40.4356 19 40.4756 17.52C40.5956 15.28 41.3356 13.38 42.6956 11.82C44.0956 10.26 46.2956 8.88004 49.2956 7.68004C50.0556 7.24004 50.8156 6.96004 51.5756 6.84004C52.3756 6.72004 53.1556 6.62004 53.9156 6.54004C54.9156 6.54004 55.9956 6.56004 57.1556 6.60004C58.3156 6.64004 59.4556 6.66004 60.5756 6.66004H60.8756C61.0356 6.66004 61.1156 6.68004 61.1156 6.72004C61.4756 6.68004 62.1356 6.68004 63.0956 6.72004C63.6556 6.76004 64.1156 6.82004 64.4756 6.90004C64.8356 6.94004 65.2156 7.02004 65.6156 7.14004L66.7556 7.50004C67.1956 7.62004 67.4556 7.56004 67.5356 7.32004C67.6156 7.04004 67.6356 6.70004 67.5956 6.30004C67.5956 5.90004 67.6556 5.56004 67.7756 5.28004C68.0956 4.60004 68.4556 3.84004 68.8556 3.00004C69.2956 2.12004 69.7756 1.14004 70.2956 0.0600388L70.7156 3.60012e-05L72.5156 0.540036C72.7956 0.540036 72.9756 0.580037 73.0556 0.660038C73.1756 0.820039 73.2756 0.920038 73.3556 0.960038C73.4356 1.00004 73.4956 1.06004 73.5356 1.14004L74.7356 1.62004C74.8956 1.54004 75.1156 1.58004 75.3956 1.74004L76.1756 2.04004L76.3556 2.22004C76.5156 2.22004 76.6156 2.24004 76.6556 2.28004C76.7756 2.40004 76.8356 2.46004 76.8356 2.46004C76.9156 2.38004 76.9556 2.40004 76.9556 2.52004C77.0356 2.52004 77.0956 2.54004 77.1356 2.58004L77.3156 2.70004L78.6356 3.30004L78.8156 3.54004C78.9756 3.54004 79.0556 3.56004 79.0556 3.60004C79.1756 3.72004 79.2756 3.78004 79.3556 3.78004L79.6556 3.96004C79.8956 4.20004 79.9356 4.40004 79.7756 4.56004C79.4956 4.88004 79.2356 5.20004 78.9956 5.52004C78.7556 5.80004 78.1356 6.40004 77.1356 7.32004C77.0556 7.44004 76.9356 7.56004 76.7756 7.68004C76.6556 7.76004 76.5556 7.84004 76.4756 7.92004L75.5756 8.58004C75.3756 8.74004 75.2756 8.86004 75.2756 8.94004L74.7356 9.48004C74.6156 9.60004 74.4556 9.76004 74.2556 9.96004C74.0556 10.16 73.8756 10.36 73.7156 10.56C75.8756 12.44 76.8556 15.12 76.6556 18.6C76.5756 19.84 76.3556 21.12 75.9956 22.44C75.6756 23.76 75.3156 24.74 74.9156 25.38C74.3956 26.26 73.6756 27.08 72.7556 27.84C71.8356 28.56 70.8956 29.08 69.9356 29.4L68.7356 29.82C68.6156 29.86 68.4956 29.92 68.3756 30H68.0156C67.9356 30.04 67.7156 30.12 67.3556 30.24C67.0356 30.32 66.4556 30.46 65.6156 30.66C65.3756 30.7 65.1156 30.72 64.8356 30.72C64.5556 30.68 64.3756 30.66 64.2956 30.66C63.7756 30.66 63.3556 30.66 63.0356 30.66C62.7556 30.62 62.5756 30.62 62.4956 30.66C62.2956 30.7 62.0356 30.7 61.7156 30.66C61.4356 30.58 61.1956 30.56 60.9956 30.6C59.7956 30.48 58.9156 30.56 58.3556 30.84C57.7956 31.08 57.4956 31.4 57.4556 31.8C57.4556 32.2 57.6556 32.58 58.0556 32.94C58.4556 33.26 58.9956 33.44 59.6756 33.48C61.4756 33.68 62.7756 33.86 63.5756 34.02C64.4156 34.14 65.0156 34.26 65.3756 34.38C65.7756 34.46 66.1556 34.56 66.5156 34.68C66.8756 34.76 67.4556 34.86 68.2556 34.98C75.5356 36.06 79.1556 39.56 79.1156 45.48C79.0356 51.16 75.8156 54.9 69.4556 56.7C69.3756 56.7 69.3156 56.66 69.2756 56.58C69.2356 56.5 69.1156 56.54 68.9156 56.7C68.8756 56.74 68.7756 56.76 68.6156 56.76C68.3756 56.88 68.0156 56.94 67.5356 56.94H67.1156C65.9956 56.94 64.9556 57.08 63.9956 57.36C63.0356 57.68 62.1556 57.78 61.3556 57.66C61.1556 57.62 60.8756 57.6 60.5156 57.6C60.1556 57.64 59.9156 57.66 59.7956 57.66H58.5356ZM59.0756 23.46L60.2756 23.4L61.3556 22.44L61.6556 22.26L62.0156 21.42V20.88C62.0956 20.68 62.1556 20.5 62.1956 20.34C62.2756 20.14 62.3956 19.9 62.5556 19.62V19.38L62.6156 18.96L61.0556 15.12C60.8956 14.44 60.5956 14.04 60.1556 13.92C59.5556 13.8 59.1956 13.7 59.0756 13.62C58.9556 13.54 58.7156 13.5 58.3556 13.5C58.2756 13.5 58.1356 13.54 57.9356 13.62C57.7356 13.66 57.4956 13.72 57.2156 13.8C56.0956 14.52 55.5356 15.54 55.5356 16.86V17.34C55.5356 18.02 55.5756 18.68 55.6556 19.32C55.7756 19.92 55.9156 20.32 56.0756 20.52C56.2756 20.8 56.3556 21.02 56.3156 21.18C56.2756 21.34 56.2556 21.46 56.2556 21.54C56.2556 21.94 56.4356 22.26 56.7956 22.5C57.1956 22.74 57.5956 22.98 57.9956 23.22C58.0756 23.3 58.1956 23.38 58.3556 23.46C58.5156 23.5 58.7556 23.5 59.0756 23.46ZM62.2556 48.9C63.6156 48.62 64.6756 48.2 65.4356 47.64C66.1956 47.12 66.5556 46.6 66.5156 46.08C66.4756 45.6 65.9356 45.28 64.8956 45.12C64.4956 45.04 64.2956 44.98 64.2956 44.94C64.3356 44.9 64.2556 44.88 64.0556 44.88H62.4956C62.4556 44.84 62.2756 44.8 61.9556 44.76C61.6356 44.72 61.2956 44.68 60.9356 44.64C60.4956 44.56 60.3356 44.5 60.4556 44.46C60.5756 44.46 60.4756 44.48 60.1556 44.52C59.6356 44.48 59.2556 44.44 59.0156 44.4C58.8156 44.36 58.6156 44.32 58.4156 44.28C58.2556 44.24 57.9556 44.2 57.5156 44.16C56.9956 44.12 56.3956 44.08 55.7156 44.04C55.0756 44 54.6556 43.98 54.4556 43.98C54.1356 43.98 53.9756 44 53.9756 44.04C53.9756 44.08 53.9356 44.16 53.8556 44.28L53.6156 44.76C53.3756 45.24 53.3756 45.84 53.6156 46.56C53.8556 47.32 54.2356 47.9 54.7556 48.3C55.4356 48.82 56.3356 49.12 57.4556 49.2C58.6156 49.28 60.2156 49.18 62.2556 48.9Z" fill="#58443A"/>
</svg>
